<?xml version="1.0" standalone="no"?><!DOCTYPE svg PUBLIC "-//W3C//DTD SVG 1.1//EN" "http://www.w3.org/Graphics/SVG/1.1/DTD/svg11.dtd"><svg t="1719587034498" class="icon" viewBox="0 0 1024 1024" version="1.1" xmlns="http://www.w3.org/2000/svg" p-id="4271" xmlns:xlink="http://www.w3.org/1999/xlink" width="128" height="128"><path d="M443.733333 776.533333c-179.2-25.6-307.2-192-281.6-375.466666 25.6-179.2 192-307.2 375.466667-281.6 179.2 25.6 307.2 192 281.6 375.466666-25.6 179.2-196.266667 307.2-375.466667 281.6M981.333333 938.666667l-213.333333-213.333334c59.733333-59.733333 98.133333-132.266667 110.933333-221.866666 29.866667-217.6-119.466667-413.866667-332.8-448-213.333333-29.866667-413.866667 119.466667-448 337.066666-29.866667 217.6 119.466667 413.866667 332.8 448 106.666667 17.066667 209.066667-12.8 285.866667-72.533333v4.266667l213.333333 213.333333c12.8 12.8 34.133333 12.8 46.933334 0s17.066667-34.133333 4.266666-46.933333" p-id="4272" fill="#1296db"></path></svg>