<?xml version="1.0" standalone="no"?><!DOCTYPE svg PUBLIC "-//W3C//DTD SVG 1.1//EN" "http://www.w3.org/Graphics/SVG/1.1/DTD/svg11.dtd"><svg t="1719720488854" class="icon" viewBox="0 0 1024 1024" version="1.1" xmlns="http://www.w3.org/2000/svg" p-id="7157" xmlns:xlink="http://www.w3.org/1999/xlink" width="128" height="128"><path d="M849.92 512h-34.133333l75.946666 403.626667c0 24.746667-18.773333 44.373333-42.666666 44.373333H174.08c-23.04 0-41.813333-20.48-41.813333-44.373333L207.36 512h-34.133333c-23.04 0-42.666667-20.48-42.666667-45.226667v-44.373333c0-24.746667 18.773333-44.373333 42.666667-44.373333H426.666667V153.6c0-49.493333 37.546667-89.6 84.48-89.6s84.48 40.106667 84.48 89.6v224.426667h253.44c23.04 0 41.813333 20.48 41.813333 44.373333v44.373333c1.706667 24.746667-17.066667 45.226667-40.96 45.226667z m-675.84 403.626667h128c-3.413333-5.12-4.266667-10.24-3.413333-16.213334L324.266667 699.733333c1.706667-11.946667 12.8-20.48 24.746666-17.92 11.946667 1.706667 18.773333 13.653333 17.066667 25.6l-25.6 198.826667c-0.853333 3.413333-1.706667 5.973333-3.413333 8.533333h512.853333L765.44 512H258.56l-84.48 403.626667zM554.666667 153.6c0-24.746667-18.773333-44.373333-41.813334-44.373333s-42.666667 20.48-42.666666 44.373333v224.426667H554.666667V153.6z m295.253333 268.8H174.08v44.373333h675.84v-44.373333z m0 0" fill="#1296db" p-id="7158"></path></svg>